<svg xmlns="http://www.w3.org/2000/svg" width="484" height="161"><defs><filter id="a" x="0" y="0" width="484" height="161" filterUnits="userSpaceOnUse"><feOffset dy="3"/><feGaussianBlur stdDeviation="3" result="blur"/><feFlood flood-opacity=".161"/><feComposite operator="in" in2="blur"/><feComposite in="SourceGraphic"/></filter></defs><g data-name="Group 121"><g filter="url(#a)"><path data-name="Rectangle 13" fill="#ecf4ff" opacity=".85" d="M9 6h466v143H9z"/></g><path data-name="Path 22" d="M85.377 49.362a27.947 27.947 0 0 0-27.313 33.813 19.086 19.086 0 0 0 3.208-1.248 25.531 25.531 0 0 0 8.967-7.575c3.26-4.292 6.241-8.051 9.713-10.6A16.229 16.229 0 0 1 92.52 60.6a8.925 8.925 0 0 1 6.417 3.713c2.913 4.217 1.585 10.294 1.526 10.551a1.331 1.331 0 0 1-2.476.324 7.983 7.983 0 0 0-1.6-1.934 6.968 6.968 0 0 0-4.747-1.836 8.637 8.637 0 0 0-5.733 2.977 11.1 11.1 0 0 0-3.125 7.627 7.409 7.409 0 0 0 4.119 6.841 5.884 5.884 0 0 0 6.459-.806 24.345 24.345 0 0 0 4.638-4.523 1.3 1.3 0 0 1 1.133-.674h.014a1.315 1.315 0 0 1 1.137.67 5.52 5.52 0 0 0 4.528 2.441h.085a15.965 15.965 0 0 0 7.626-2.047 27.946 27.946 0 0 0-27.141-34.56z" fill="#a8cada"/><path data-name="Path 23" d="M99.159 86.307a38.8 38.8 0 0 1-4.118 3.807 8.648 8.648 0 0 1-5.51 2.02 8.8 8.8 0 0 1-3.775-.868 9.708 9.708 0 0 1-4.025-3.582 10.52 10.52 0 0 1-1.611-5.664 13.751 13.751 0 0 1 3.852-9.455 11.17 11.17 0 0 1 7.666-3.81 9.615 9.615 0 0 1 6.518 2.506 9.676 9.676 0 0 0-1.411-5.447 6.294 6.294 0 0 0-4.593-2.583c-8.531-1.2-13.169 4.01-19.793 12.73-5.114 6.733-10.921 9.041-13.608 9.788a27.937 27.937 0 0 0 52.68 1.625 18.954 18.954 0 0 1-6.5 1.259 7.991 7.991 0 0 1-5.772-2.326z" fill="#436d89"/><path data-name="Path 24" d="M85.38 37.928a39.369 39.369 0 1 0 39.368 39.369A39.369 39.369 0 0 0 85.38 37.928zm21.634 61a30.5 30.5 0 1 1 6.556-9.724 30.5 30.5 0 0 1-6.559 9.727z" fill="#a8cada"/><path data-name="Path 25" d="M113.568 65.388a30.691 30.691 0 1 0 2.4 11.91 30.481 30.481 0 0 0-2.4-11.91zm-28.192 39.844A27.985 27.985 0 0 1 58.75 85.749c2.687-.747 8.494-3.055 13.608-9.788 6.624-8.72 11.262-13.928 19.793-12.73a6.294 6.294 0 0 1 4.593 2.583 9.675 9.675 0 0 1 1.411 5.447 9.615 9.615 0 0 0-6.518-2.506 11.17 11.17 0 0 0-7.666 3.81 13.751 13.751 0 0 0-3.852 9.455 10.52 10.52 0 0 0 1.611 5.664 9.708 9.708 0 0 0 4.029 3.582 8.8 8.8 0 0 0 3.775.868 8.648 8.648 0 0 0 5.508-2.021 38.8 38.8 0 0 0 4.118-3.807 7.991 7.991 0 0 0 5.771 2.322 18.954 18.954 0 0 0 6.5-1.259 27.982 27.982 0 0 1-26.055 17.863zm27.143-21.313a15.966 15.966 0 0 1-7.626 2.047h-.085a5.52 5.52 0 0 1-4.528-2.441 1.315 1.315 0 0 0-1.137-.67h-.014a1.3 1.3 0 0 0-1.133.674 24.341 24.341 0 0 1-4.638 4.523 5.884 5.884 0 0 1-6.459.806 7.41 7.41 0 0 1-4.123-6.839 11.1 11.1 0 0 1 3.125-7.627 8.637 8.637 0 0 1 5.733-2.977 6.968 6.968 0 0 1 4.747 1.836 7.98 7.98 0 0 1 1.6 1.934 1.331 1.331 0 0 0 2.476-.324c.058-.257 1.387-6.334-1.527-10.551a8.925 8.925 0 0 0-6.417-3.713 16.229 16.229 0 0 0-12.568 3.152c-3.472 2.552-6.453 6.311-9.713 10.6a25.531 25.531 0 0 1-8.967 7.575 19.085 19.085 0 0 1-3.208 1.248 27.935 27.935 0 1 1 54.462.747z" fill="#f8f5ef"/><text data-name="Coastal Counseling" transform="translate(291.471 92.638)" fill="#5d5d5d" font-size="50" font-family="AlFresco-Bold, Al Fresco" font-weight="700"><tspan x="-143.475" y="0">Coastal Counseling</tspan></text></g></svg>