<svg version="1.1" id="Layer_1" xmlns="http://www.w3.org/2000/svg" x="0" y="0" viewBox="0 0 96 40.8" xml:space="preserve"><style>.st0{fill:#2f91cf}</style><circle class="st0" cx="78.9" cy="21.4" r="1.5"/><path class="st0" d="M96 14.5c-.1-.5-.6-.8-1.1-.8l-8.8.9-7.8-1.4-1.9-3.7-1-8.7c0-.3-.2-.6-.5-.7-.2-.1-.5-.1-.8 0l-3.6 1.3c-.4.2-.7.6-.7 1l.3 2.8-2.9 1.3c-.4.2-.7.6-.6 1.1l.7 3.5-1.5 1.1-14.5-10c-.1-.2-.3-.3-.5-.3H32.7c-.3 0-.5.1-.7.3L21.3 13.1 9.6 25.6l-3.5 3.5-5.6 2.5c-.3.2-.5.5-.5.9v1.9c0 .3.1.6.3.7.2.2.4.3.7.3h.1l9.9-1.2c.1 0 .2 0 .3-.1l3.6-1.8L26.1 27l-1.3 6.4V39c0 .5.4 1 1 1H33c.3 0 .7-.2.8-.5.2-.3.2-.6.1-.9l-1.1-2.3 3.9-2.8h.4l-.1.5v.3l.4 4.9c0 .5.5.9 1 .9h6.7c.3 0 .7-.2.8-.5.2-.3.2-.6.1-.9l-1.2-2.6 3.1-4.4h.7l-.5 1.3c-.1.2-.1.4 0 .5l1.5 5.8c.1.4.5.7 1 .7h6.7c.3 0 .6-.1.8-.4.2-.2.3-.6.2-.9l-1.4-5.6.3-1 3.4 7.3c.2.4.5.6.9.6h7.4c.3 0 .6-.2.8-.5s.2-.6.1-.9l-4-9.1.7-.2c1 1.4 2.6 2.4 4.4 2.4 1 0 2-.3 2.8-.8l4 2.9c0 .2.2.2.3.2l5.1.7h.1c.3 0 .7-.2.9-.5.2-.3.2-.8-.1-1.1L82.4 31l2.1.5.9 1.5c.2.3.5.5.8.5.3 0 .7-.2.8-.5l2.1-3.3c.1-.2.2-.4.1-.6l-.3-2.5 1.3-.1c.3 0 .5-.2.7-.4l1.5-1.8c.2-.3.3-.7.2-1-.1-.3-.5-.6-.8-.6l-3.8-.2-3.2-1.6-2-2.1 5.5-.4c.1 0 .2 0 .3-.1l6.7-2.7c.5-.1.8-.6.7-1.1zm-74.3 1.1L26 25l-11.2 5.3-3.1-4 10-10.7zM10.6 32.3l-8.7 1v-.2l5.2-2.3c.1-.1.2-.1.3-.2l2.8-2.9 2.7 3.4-2.3 1.2zm20.4 3c-.4.3-.5.8-.3 1.2l.8 1.7h-4.7v-4.3l1.1-5.3c1.3 2.2 3.5 3.9 6 4.6L31 35.3zm5.8-3.6h-.6c-2.9-.2-5.4-1.9-6.8-4.4-.4-.7-.6-1.4-.8-2.1 0-.1 0-.2-.1-.2-.1-.5-.2-1.1-.2-1.6 0-1.9.6-3.7 1.7-5.1 1.5-2 4-3.3 6.7-3.3 4.6 0 8.4 3.8 8.4 8.4 0 2.4-1 4.6-2.7 6.2l-.1.1c-.6.5-1.2.9-1.9 1.3-.3.1-.6.3-.9.4-.7.2-1.4.4-2.1.4-.1-.1-.4-.1-.6-.1zm6.1 3.7c-.2.3-.2.7-.1 1l.8 1.7h-4.3l-.3-3.8.2-.9c1.4-.3 2.7-.9 3.8-1.8l.3.1h2.1l-2.5 3.7zm8.5 2.8l-1.3-4.8.5-1.7 4.7-.1-.4 1.4c-.1.2-.1.4 0 .5l1.2 4.6h-4.7zm4.5-13.4c-.3-.4-.6-1-.6-1.6v-.3c.2-1.2 1.2-2.2 2.5-2.2.7 0 1.4.3 1.9.8.4.4.7 1 .7 1.7v.2c-.1 1.3-1.2 2.3-2.5 2.3-.8.1-1.5-.3-2-.9zm11.3 13.4H62l-4.8-10.5c.2 0 .4.1.7.1 1.6 0 3-.8 3.8-2.1l5.5 12.5zm-2.4-10.4l-2.7-6.1c-.6-1.7-2.3-3-4.2-3-2.5 0-4.5 2-4.5 4.5 0 .4.1.8.2 1.2v.1c0 .1 0 .1.1.2.1.3.2.6.4.9l.8 1.8.9 2 .1.1-4.6.1h-2.1l-2.3.1h-2c1.4-1.8 2.3-4.1 2.3-6.5 0-5.7-4.7-10.4-10.4-10.4-5.1 0-9.4 3.7-10.2 8.6L23.2 14l10-10.1h17.4l13.8 9.6c-.1.3-.1.6.1.8l1.7 3.1-1.2 3.1c-.1.3-.1.6.1.9l1.4 2.1c-.6.8-.9 1.8-.9 2.9 0 .4 0 .8.1 1.1l-.9.3zm7.9 1.4c-.6.4-1.2.6-1.9.6-.9 0-1.8-.4-2.4-1-.5-.5-.8-1.1-.9-1.8v-.8c0-.3.1-.6.2-.8.2-.6.7-1.2 1.2-1.6.5-.4 1.2-.6 1.9-.6 1.8 0 3.2 1.4 3.3 3.2v.2c0 .4-.1.8-.2 1.2-.2.4-.7 1-1.2 1.4zm5.8 2.9l-3.2-2.3 4.8.7v.6c0 .2.1.4.2.6l.6.8-2.4-.4zm5.3-9.5l3.5 1.8c.1.1.2.1.4.1l2.1.2-1.9.2c-.3 0-.5.2-.7.4-.2.1-.3.4-.2.7l.4 3.2-1 1.6-.4-.5c-.1-.2-.3-.4-.6-.4l-3.3-.9-1.2-.3h-.1l-4.9-.7c.1-.4.2-.8.2-1.2v-.2c0-2.9-2.4-5.3-5.3-5.3-1.1 0-2.2.3-3 .9l-.6-.8-.3-.5.3-.7 1-2.4c.1-.3.1-.6-.1-.8l-1.5-2.8 1.1-.8 1.4-1c.3-.2.5-.6.4-1L68.7 8l2.8-1.2c.4-.2.6-.6.6-1L71.8 3l1.7-.6.9 7.6c0 .1 0 .2.1.3l3 5.9c0 .1.1.2.2.2l5.7 6c.2.1.3.2.4.2zm-1.2-5.7l-1.2-1.1 5.2.6 2.7-.1-1.2.5-5.5.1z"/><path class="st0" d="M41.6 23.2c0-2.7-2.2-4.8-4.8-4.8S32 20.6 32 23.2s2.2 4.8 4.8 4.8 4.8-2.1 4.8-4.8zm-4.8 2.9c-1.6 0-2.9-1.3-2.9-2.9 0-1.6 1.3-2.9 2.9-2.9 1.6 0 2.9 1.3 2.9 2.9 0 1.6-1.3 2.9-2.9 2.9z"/></svg>