<?xml version="1.0" encoding="utf-8"?>
<!-- Generator: Adobe Illustrator 23.1.0, SVG Export Plug-In . SVG Version: 6.00 Build 0)  -->
<svg version="1.1" id="Layer_1" xmlns="http://www.w3.org/2000/svg" xmlns:xlink="http://www.w3.org/1999/xlink" x="0px" y="0px"
	 viewBox="0 0 96 40.8" style="enable-background:new 0 0 96 40.8;" xml:space="preserve">
<style type="text/css">
	.st0{fill:#2F91CF;}
</style>
<g>
	<circle class="st0" cx="78.9" cy="21.4" r="1.5"/>
	<g>
		<path class="st0" d="M96,14.5c-0.1-0.5-0.6-0.8-1.1-0.8l-8.8,0.9l-7.8-1.4l-1.9-3.7l-1-8.7c0-0.3-0.2-0.6-0.5-0.7
			C74.7,0,74.4,0,74.1,0.1l-3.6,1.3c-0.4,0.2-0.7,0.6-0.7,1l0.3,2.8l-2.9,1.3c-0.4,0.2-0.7,0.6-0.6,1.1l0.7,3.5l-1.5,1.1l-14.5-10
			C51.2,2,51,1.9,50.8,1.9H32.7c-0.3,0-0.5,0.1-0.7,0.3L21.3,13.1c0,0,0,0,0,0c0,0,0,0,0,0L9.6,25.6l-3.5,3.5l-5.6,2.5
			C0.2,31.8,0,32.1,0,32.5v1.9c0,0.3,0.1,0.6,0.3,0.7c0.2,0.2,0.4,0.3,0.7,0.3c0,0,0.1,0,0.1,0l9.9-1.2c0.1,0,0.2,0,0.3-0.1l3.6-1.8
			l11.2-5.3l-1.3,6.4c0,0.1,0,0.1,0,0.2v5.4c0,0.5,0.4,1,1,1H33c0.3,0,0.7-0.2,0.8-0.5c0.2-0.3,0.2-0.6,0.1-0.9l-1.1-2.3l3.9-2.8
			c0,0,0,0,0.1,0c0.1,0,0.2,0,0.3,0L37,34c0,0.1,0,0.2,0,0.3l0.4,4.9c0,0.5,0.5,0.9,1,0.9c0,0,0,0,0,0l6.7,0c0.3,0,0.7-0.2,0.8-0.5
			c0.2-0.3,0.2-0.6,0.1-0.9l-1.2-2.6l3.1-4.4l0.7,0L48.1,33c-0.1,0.2-0.1,0.4,0,0.5l1.5,5.8c0.1,0.4,0.5,0.7,1,0.7h6.7
			c0.3,0,0.6-0.1,0.8-0.4c0.2-0.2,0.3-0.6,0.2-0.9l-1.4-5.6l0.3-1l3.4,7.3c0.2,0.4,0.5,0.6,0.9,0.6h7.4c0.3,0,0.6-0.2,0.8-0.5
			s0.2-0.6,0.1-0.9l-4-9.1l0.7-0.2c1,1.4,2.6,2.4,4.4,2.4c1,0,2-0.3,2.8-0.8l4,2.9C77.7,34,77.9,34,78,34l5.1,0.7c0,0,0.1,0,0.1,0
			c0.3,0,0.7-0.2,0.9-0.5c0.2-0.3,0.2-0.8-0.1-1.1l-1.6-2.1l2.1,0.5l0.9,1.5c0.2,0.3,0.5,0.5,0.8,0.5c0,0,0,0,0,0
			c0.3,0,0.7-0.2,0.8-0.5l2.1-3.3c0.1-0.2,0.2-0.4,0.1-0.6l-0.3-2.5l1.3-0.1c0.3,0,0.5-0.2,0.7-0.4l1.5-1.8c0.2-0.3,0.3-0.7,0.2-1
			c-0.1-0.3-0.5-0.6-0.8-0.6L88,22.5l-3.2-1.6l-2-2.1l5.5-0.4c0.1,0,0.2,0,0.3-0.1l6.7-2.7C95.8,15.5,96.1,15,96,14.5z M21.7,15.6
			L26,25l-11.2,5.3l-3.1-4L21.7,15.6z M10.6,32.3l-8.7,1v-0.2l5.2-2.3c0.1-0.1,0.2-0.1,0.3-0.2l2.8-2.9l2.7,3.4L10.6,32.3z M31,35.3
			c-0.4,0.3-0.5,0.8-0.3,1.2l0.8,1.7h-4.7v-4.3l1.1-5.3c1.3,2.2,3.5,3.9,6,4.6L31,35.3z M36.8,31.7c-0.2,0-0.4,0-0.6,0
			c-2.9-0.2-5.4-1.9-6.8-4.4c-0.4-0.7-0.6-1.4-0.8-2.1c0-0.1,0-0.2-0.1-0.2c-0.1-0.5-0.2-1.1-0.2-1.6c0-1.9,0.6-3.7,1.7-5.1
			c1.5-2,4-3.3,6.7-3.3c4.6,0,8.4,3.8,8.4,8.4c0,2.4-1,4.6-2.7,6.2c0,0-0.1,0.1-0.1,0.1c-0.6,0.5-1.2,0.9-1.9,1.3
			c-0.3,0.1-0.6,0.3-0.9,0.4c-0.7,0.2-1.4,0.4-2.1,0.4C37.3,31.7,37,31.7,36.8,31.7z M42.9,35.4c-0.2,0.3-0.2,0.7-0.1,1l0.8,1.7
			l-4.3,0L39,34.3l0.2-0.9c1.4-0.3,2.7-0.9,3.8-1.8l0.3,0.1c0.1,0,0.2,0,0.3,0c0,0,0,0,0,0l1.8,0L42.9,35.4z M51.4,38.2l-1.3-4.8
			l0.5-1.7l4.7-0.1L54.9,33c-0.1,0.2-0.1,0.4,0,0.5l1.2,4.6H51.4z M55.9,24.8c-0.3-0.4-0.6-1-0.6-1.6c0-0.1,0-0.2,0-0.3
			c0.2-1.2,1.2-2.2,2.5-2.2c0.7,0,1.4,0.3,1.9,0.8c0.4,0.4,0.7,1,0.7,1.7c0,0.1,0,0.1,0,0.2c-0.1,1.3-1.2,2.3-2.5,2.3
			C57.1,25.8,56.4,25.4,55.9,24.8z M67.2,38.2H62l-4.8-10.5c0.2,0,0.4,0.1,0.7,0.1c1.6,0,3-0.8,3.8-2.1L67.2,38.2z M64.8,27.8
			l-2.7-6.1c0,0,0,0,0,0c-0.6-1.7-2.3-3-4.2-3c-2.5,0-4.5,2-4.5,4.5c0,0.4,0.1,0.8,0.2,1.2c0,0,0,0.1,0,0.1c0,0.1,0,0.1,0.1,0.2l0,0
			c0.1,0.3,0.2,0.6,0.4,0.9l0.8,1.8l0.9,2l0.1,0.1l-4.6,0.1l-1.9,0l-0.2,0l-2.3,0.1l-2,0c1.4-1.8,2.3-4.1,2.3-6.5
			c0-5.7-4.7-10.4-10.4-10.4c-5.1,0-9.4,3.7-10.2,8.6L23.2,14l10-10.1h17.4l13.8,9.6c-0.1,0.3-0.1,0.6,0.1,0.8l1.7,3.1l-1.2,3.1
			c-0.1,0.3-0.1,0.6,0.1,0.9l1.4,2.1c-0.6,0.8-0.9,1.8-0.9,2.9c0,0.4,0,0.8,0.1,1.1L64.8,27.8z M72.7,29.2
			C72.7,29.2,72.7,29.2,72.7,29.2c-0.6,0.4-1.2,0.6-1.9,0.6c-0.9,0-1.8-0.4-2.4-1c-0.5-0.5-0.8-1.1-0.9-1.8c0-0.2,0-0.3,0-0.5
			c0-0.1,0-0.2,0-0.3c0-0.3,0.1-0.6,0.2-0.8c0.2-0.6,0.7-1.2,1.2-1.6c0.5-0.4,1.2-0.6,1.9-0.6c1.8,0,3.2,1.4,3.3,3.2
			c0,0.1,0,0.1,0,0.2c0,0.4-0.1,0.8-0.2,1.2C73.7,28.2,73.2,28.8,72.7,29.2z M78.5,32.1l-3.2-2.3l4.8,0.7l0,0.6
			c0,0.2,0.1,0.4,0.2,0.6l0.6,0.8L78.5,32.1z M83.8,22.6l3.5,1.8c0.1,0.1,0.2,0.1,0.4,0.1l2.1,0.2l0,0l-1.9,0.2
			c-0.3,0-0.5,0.2-0.7,0.4C87,25.4,86.9,25.7,87,26l0.4,3.2l-1,1.6L86,30.3c-0.1-0.2-0.3-0.4-0.6-0.4l-3.3-0.9l-1.2-0.3
			c0,0-0.1,0-0.1,0l-4.9-0.7c0.1-0.4,0.2-0.8,0.2-1.2c0-0.1,0-0.2,0-0.2c0-2.9-2.4-5.3-5.3-5.3c-1.1,0-2.2,0.3-3,0.9l-0.6-0.8
			l-0.3-0.5l0.3-0.7l1-2.4c0.1-0.3,0.1-0.6-0.1-0.8l-1.5-2.8l1.1-0.8l1.4-1c0.3-0.2,0.5-0.6,0.4-1L68.7,8l2.8-1.2
			c0.4-0.2,0.6-0.6,0.6-1L71.8,3l1.7-0.6l0.9,7.6c0,0.1,0,0.2,0.1,0.3l3,5.9c0,0.1,0.1,0.2,0.2,0.2l5.7,6
			C83.6,22.5,83.7,22.6,83.8,22.6z M82.6,16.9l-1.2-1.1l5.2,0.6l2.7-0.1c0,0-1.2,0.5-1.2,0.5L82.6,16.9z"/>
		<path class="st0" d="M41.6,23.2c0-2.7-2.2-4.8-4.8-4.8S32,20.6,32,23.2s2.2,4.8,4.8,4.8S41.6,25.9,41.6,23.2z M36.8,26.1
			c-1.6,0-2.9-1.3-2.9-2.9c0-1.6,1.3-2.9,2.9-2.9c1.6,0,2.9,1.3,2.9,2.9C39.7,24.8,38.4,26.1,36.8,26.1z"/>
	</g>
</g>
</svg>
